# xmcd
#
# Track frame offsets:
#	150
#	2804
#	27172
#	50508
#	62737
#	80969
#	97961
#	117798
#	142692
#	165672
#	185232
#	202231
#	233279
#	247330
#	277459
#	294713
#
# Disc length: 4194 seconds
#
# Revision: 1
# Processed by: cddbd v1.5.1PL0 Copyright (c) Steve Scherf et al.
# Submitted via: CDex 1.50Beta5
#
DISCID=f0106010
DTITLE=TMVG - JET BOY JET GIRL
DYEAR=2001
DGENRE=Rock
TTITLE0=DWARF’S MARCH
TTITLE1=CORACAO TAMBOR
TTITLE2=don’t hold back(your love)
TTITLE3=Vibrations
TTITLE4=To The Dance Floor
TTITLE5=TECHNOVA“George’s Journey”
TTITLE6=Birds
TTITLE7=Sous Le Soleil
TTITLE8=Live From Paris(Major Club Boys Club Edit)
TTITLE9=It’s easy(Class A Vocal Mix)
TTITLE10=Be there
TTITLE11=東京は夜の7時〜the night is still young
TTITLE12=FINE
TTITLE13=IT FEEL SO GOOD
TTITLE14=I LIKE
TTITLE15=SWEET BACK
EXTD=
EXTT0=
EXTT1=
EXTT2=
EXTT3=
EXTT4=
EXTT5=
EXTT6=
EXTT7=
EXTT8=
EXTT9=
EXTT10=
EXTT11=
EXTT12=
EXTT13=
EXTT14=
EXTT15=
PLAYORDER=
